<mxfile host="Electron" agent="Mozilla/5.0 (Windows NT 10.0; Win64; x64) AppleWebKit/537.36 (KHTML, like Gecko) draw.io/22.0.2 Chrome/114.0.5735.289 Electron/25.8.4 Safari/537.36" modified="2024-10-30T07:39:50.008Z" version="22.0.2" etag="AKgSfS3skX6h9kO8kPN8" type="device">
  <diagram name="Page-1" id="0783ab3e-0a74-02c8-0abd-f7b4e66b4bec">
    <mxGraphModel dx="2093" dy="1045" grid="1" gridSize="10" guides="1" tooltips="1" connect="1" arrows="1" fold="1" page="1" pageScale="1" pageWidth="850" pageHeight="1100" background="none" math="0" shadow="0">
      <root>
        <mxCell id="0" />
        <mxCell id="1" parent="0" />
        <mxCell id="1c1d494c118603dd-1" value="&lt;font face=&quot;新宋体&quot; style=&quot;font-size: 16px;&quot;&gt;泳道&lt;/font&gt;" style="swimlane;html=1;childLayout=stackLayout;startSize=30;rounded=0;shadow=0;comic=0;labelBackgroundColor=none;strokeWidth=1;fontFamily=Verdana;fontSize=12;align=center;" parent="1" vertex="1">
          <mxGeometry x="40" y="40" width="910" height="980" as="geometry" />
        </mxCell>
        <mxCell id="1c1d494c118603dd-2" value="&lt;font face=&quot;新宋体&quot; style=&quot;font-size: 16px;&quot;&gt;投资者（用户）&lt;/font&gt;" style="swimlane;html=1;startSize=30;" parent="1c1d494c118603dd-1" vertex="1">
          <mxGeometry y="30" width="250" height="950" as="geometry" />
        </mxCell>
        <mxCell id="WSLBJZ-DhEwGsPw1suUN-29" style="edgeStyle=orthogonalEdgeStyle;rounded=0;orthogonalLoop=1;jettySize=auto;html=1;exitX=0.5;exitY=1;exitDx=0;exitDy=0;entryX=0.5;entryY=0;entryDx=0;entryDy=0;" parent="1c1d494c118603dd-2" source="WSLBJZ-DhEwGsPw1suUN-1" target="WSLBJZ-DhEwGsPw1suUN-2" edge="1">
          <mxGeometry relative="1" as="geometry" />
        </mxCell>
        <mxCell id="WSLBJZ-DhEwGsPw1suUN-1" value="" style="ellipse;html=1;shape=endState;fillColor=#000000;strokeColor=#ff0000;" parent="1c1d494c118603dd-2" vertex="1">
          <mxGeometry x="110" y="60" width="30" height="30" as="geometry" />
        </mxCell>
        <mxCell id="WSLBJZ-DhEwGsPw1suUN-32" style="edgeStyle=orthogonalEdgeStyle;rounded=0;orthogonalLoop=1;jettySize=auto;html=1;exitX=0.5;exitY=1;exitDx=0;exitDy=0;entryX=0.5;entryY=0;entryDx=0;entryDy=0;" parent="1c1d494c118603dd-2" source="WSLBJZ-DhEwGsPw1suUN-2" target="WSLBJZ-DhEwGsPw1suUN-9" edge="1">
          <mxGeometry relative="1" as="geometry" />
        </mxCell>
        <mxCell id="WSLBJZ-DhEwGsPw1suUN-2" value="&lt;font face=&quot;新宋体&quot;&gt;登陆系统&lt;/font&gt;" style="rounded=1;whiteSpace=wrap;html=1;" parent="1c1d494c118603dd-2" vertex="1">
          <mxGeometry x="70" y="130" width="110" height="30" as="geometry" />
        </mxCell>
        <mxCell id="WSLBJZ-DhEwGsPw1suUN-34" style="edgeStyle=orthogonalEdgeStyle;rounded=0;orthogonalLoop=1;jettySize=auto;html=1;exitX=0.5;exitY=1;exitDx=0;exitDy=0;entryX=0.5;entryY=0;entryDx=0;entryDy=0;" parent="1c1d494c118603dd-2" source="WSLBJZ-DhEwGsPw1suUN-9" target="WSLBJZ-DhEwGsPw1suUN-11" edge="1">
          <mxGeometry relative="1" as="geometry" />
        </mxCell>
        <mxCell id="WSLBJZ-DhEwGsPw1suUN-9" value="&lt;font face=&quot;新宋体&quot;&gt;搜索股票&lt;/font&gt;" style="rounded=1;whiteSpace=wrap;html=1;" parent="1c1d494c118603dd-2" vertex="1">
          <mxGeometry x="70" y="200" width="110" height="30" as="geometry" />
        </mxCell>
        <mxCell id="WSLBJZ-DhEwGsPw1suUN-35" style="edgeStyle=orthogonalEdgeStyle;rounded=0;orthogonalLoop=1;jettySize=auto;html=1;exitX=0.5;exitY=1;exitDx=0;exitDy=0;entryX=0.5;entryY=0;entryDx=0;entryDy=0;" parent="1c1d494c118603dd-2" source="WSLBJZ-DhEwGsPw1suUN-11" target="WSLBJZ-DhEwGsPw1suUN-12" edge="1">
          <mxGeometry relative="1" as="geometry" />
        </mxCell>
        <mxCell id="WSLBJZ-DhEwGsPw1suUN-11" value="&lt;font face=&quot;新宋体&quot;&gt;买入股票&lt;/font&gt;" style="rounded=1;whiteSpace=wrap;html=1;" parent="1c1d494c118603dd-2" vertex="1">
          <mxGeometry x="70" y="270" width="110" height="30" as="geometry" />
        </mxCell>
        <mxCell id="WSLBJZ-DhEwGsPw1suUN-36" style="edgeStyle=orthogonalEdgeStyle;rounded=0;orthogonalLoop=1;jettySize=auto;html=1;exitX=0.5;exitY=1;exitDx=0;exitDy=0;entryX=0.5;entryY=0;entryDx=0;entryDy=0;" parent="1c1d494c118603dd-2" source="WSLBJZ-DhEwGsPw1suUN-12" target="WSLBJZ-DhEwGsPw1suUN-14" edge="1">
          <mxGeometry relative="1" as="geometry" />
        </mxCell>
        <mxCell id="WSLBJZ-DhEwGsPw1suUN-12" value="&lt;font face=&quot;新宋体&quot;&gt;输入交易信息&lt;/font&gt;" style="rounded=1;whiteSpace=wrap;html=1;" parent="1c1d494c118603dd-2" vertex="1">
          <mxGeometry x="70" y="340" width="110" height="30" as="geometry" />
        </mxCell>
        <mxCell id="WSLBJZ-DhEwGsPw1suUN-14" value="&lt;font face=&quot;新宋体&quot;&gt;选择支付方式&lt;/font&gt;" style="rounded=1;whiteSpace=wrap;html=1;" parent="1c1d494c118603dd-2" vertex="1">
          <mxGeometry x="70" y="410" width="110" height="30" as="geometry" />
        </mxCell>
        <mxCell id="WSLBJZ-DhEwGsPw1suUN-51" style="edgeStyle=orthogonalEdgeStyle;rounded=0;orthogonalLoop=1;jettySize=auto;html=1;exitX=0.5;exitY=1;exitDx=0;exitDy=0;entryX=0.5;entryY=0;entryDx=0;entryDy=0;" parent="1c1d494c118603dd-2" source="WSLBJZ-DhEwGsPw1suUN-28" target="WSLBJZ-DhEwGsPw1suUN-50" edge="1">
          <mxGeometry relative="1" as="geometry" />
        </mxCell>
        <mxCell id="WSLBJZ-DhEwGsPw1suUN-28" value="&lt;font face=&quot;新宋体&quot;&gt;完成支付&lt;/font&gt;" style="rounded=1;whiteSpace=wrap;html=1;" parent="1c1d494c118603dd-2" vertex="1">
          <mxGeometry x="70" y="820" width="110" height="30" as="geometry" />
        </mxCell>
        <mxCell id="WSLBJZ-DhEwGsPw1suUN-45" value="" style="html=1;points=[];perimeter=orthogonalPerimeter;fillColor=strokeColor;rotation=90;" parent="1c1d494c118603dd-2" vertex="1">
          <mxGeometry x="122.5" y="725" width="5" height="110" as="geometry" />
        </mxCell>
        <mxCell id="WSLBJZ-DhEwGsPw1suUN-50" value="" style="ellipse;html=1;shape=endState;fillColor=#000000;strokeColor=#ff0000;" parent="1c1d494c118603dd-2" vertex="1">
          <mxGeometry x="110" y="890" width="30" height="30" as="geometry" />
        </mxCell>
        <mxCell id="WSLBJZ-DhEwGsPw1suUN-138" value="&lt;font face=&quot;新宋体&quot;&gt;交易成功&lt;/font&gt;" style="rounded=1;whiteSpace=wrap;html=1;" parent="1c1d494c118603dd-2" vertex="1">
          <mxGeometry x="70" y="710" width="110" height="30" as="geometry" />
        </mxCell>
        <mxCell id="WSLBJZ-DhEwGsPw1suUN-149" style="edgeStyle=orthogonalEdgeStyle;rounded=0;orthogonalLoop=1;jettySize=auto;html=1;exitX=0.5;exitY=1;exitDx=0;exitDy=0;entryX=-0.143;entryY=0.501;entryDx=0;entryDy=0;entryPerimeter=0;" parent="1c1d494c118603dd-2" source="WSLBJZ-DhEwGsPw1suUN-138" target="WSLBJZ-DhEwGsPw1suUN-45" edge="1">
          <mxGeometry relative="1" as="geometry" />
        </mxCell>
        <mxCell id="ZbHFoeEuC-JyLoZ0wAo7-4" style="edgeStyle=orthogonalEdgeStyle;rounded=0;orthogonalLoop=1;jettySize=auto;html=1;exitX=0.5;exitY=1;exitDx=0;exitDy=0;entryX=-0.143;entryY=0.501;entryDx=0;entryDy=0;entryPerimeter=0;" edge="1" parent="1c1d494c118603dd-2">
          <mxGeometry relative="1" as="geometry">
            <mxPoint x="124.89999999999999" y="783" as="sourcePoint" />
            <mxPoint x="124.89999999999999" y="820" as="targetPoint" />
          </mxGeometry>
        </mxCell>
        <mxCell id="1c1d494c118603dd-3" value="&lt;font face=&quot;新宋体&quot; style=&quot;font-size: 16px;&quot;&gt;在线证券平台&lt;/font&gt;" style="swimlane;html=1;startSize=30;" parent="1c1d494c118603dd-1" vertex="1">
          <mxGeometry x="250" y="30" width="270" height="950" as="geometry" />
        </mxCell>
        <mxCell id="WSLBJZ-DhEwGsPw1suUN-10" value="&lt;font face=&quot;新宋体&quot;&gt;查看股票详情&lt;/font&gt;" style="rounded=1;whiteSpace=wrap;html=1;" parent="1c1d494c118603dd-3" vertex="1">
          <mxGeometry x="80" y="200" width="110" height="30" as="geometry" />
        </mxCell>
        <mxCell id="WSLBJZ-DhEwGsPw1suUN-3" value="&lt;font face=&quot;新宋体&quot;&gt;实名认证&lt;span style=&quot;background-color: initial;&quot;&gt;与&lt;/span&gt;&lt;span style=&quot;background-color: initial;&quot;&gt;身份验证&lt;/span&gt;&lt;/font&gt;&lt;span style=&quot;background-color: initial;&quot;&gt;&lt;br&gt;&lt;/span&gt;" style="rounded=1;whiteSpace=wrap;html=1;" parent="1c1d494c118603dd-3" vertex="1">
          <mxGeometry x="70" y="130" width="130" height="30" as="geometry" />
        </mxCell>
        <mxCell id="WSLBJZ-DhEwGsPw1suUN-15" value="&lt;font face=&quot;新宋体&quot;&gt;确认交易&lt;/font&gt;" style="rounded=1;whiteSpace=wrap;html=1;" parent="1c1d494c118603dd-3" vertex="1">
          <mxGeometry x="80" y="410" width="110" height="30" as="geometry" />
        </mxCell>
        <mxCell id="WSLBJZ-DhEwGsPw1suUN-52" value="&lt;font face=&quot;新宋体&quot;&gt;交易时段限制&lt;/font&gt;" style="rounded=1;whiteSpace=wrap;html=1;" parent="1c1d494c118603dd-3" vertex="1">
          <mxGeometry x="20" y="710" width="110" height="30" as="geometry" />
        </mxCell>
        <mxCell id="WSLBJZ-DhEwGsPw1suUN-91" value="&lt;font face=&quot;新宋体&quot;&gt;网络或系统故障&lt;/font&gt;" style="rounded=1;whiteSpace=wrap;html=1;" parent="1c1d494c118603dd-3" vertex="1">
          <mxGeometry x="140" y="710" width="110" height="30" as="geometry" />
        </mxCell>
        <mxCell id="1c1d494c118603dd-4" value="&lt;font face=&quot;新宋体&quot; style=&quot;font-size: 16px;&quot;&gt;银行账户（支付）&lt;/font&gt;" style="swimlane;html=1;startSize=30;" parent="1c1d494c118603dd-1" vertex="1">
          <mxGeometry x="520" y="30" width="390" height="950" as="geometry" />
        </mxCell>
        <mxCell id="WSLBJZ-DhEwGsPw1suUN-141" style="edgeStyle=orthogonalEdgeStyle;rounded=0;orthogonalLoop=1;jettySize=auto;html=1;exitX=0.5;exitY=1;exitDx=0;exitDy=0;entryX=0.5;entryY=0;entryDx=0;entryDy=0;" parent="1c1d494c118603dd-4" source="WSLBJZ-DhEwGsPw1suUN-18" target="WSLBJZ-DhEwGsPw1suUN-140" edge="1">
          <mxGeometry relative="1" as="geometry" />
        </mxCell>
        <mxCell id="WSLBJZ-DhEwGsPw1suUN-18" value="&lt;font face=&quot;新宋体&quot;&gt;查看订单&lt;/font&gt;&lt;span style=&quot;font-family: 新宋体; background-color: initial;&quot;&gt;执行状态&lt;/span&gt;&lt;font face=&quot;新宋体&quot;&gt;&lt;br&gt;&lt;/font&gt;" style="rounded=1;whiteSpace=wrap;html=1;" parent="1c1d494c118603dd-4" vertex="1">
          <mxGeometry x="40" y="550" width="130" height="30" as="geometry" />
        </mxCell>
        <mxCell id="WSLBJZ-DhEwGsPw1suUN-20" value="" style="html=1;points=[];perimeter=orthogonalPerimeter;fillColor=strokeColor;rotation=90;" parent="1c1d494c118603dd-4" vertex="1">
          <mxGeometry x="172.5" y="432" width="5" height="110" as="geometry" />
        </mxCell>
        <mxCell id="WSLBJZ-DhEwGsPw1suUN-42" style="edgeStyle=orthogonalEdgeStyle;rounded=0;orthogonalLoop=1;jettySize=auto;html=1;entryX=0.5;entryY=0;entryDx=0;entryDy=0;" parent="1c1d494c118603dd-4" target="WSLBJZ-DhEwGsPw1suUN-18" edge="1">
          <mxGeometry relative="1" as="geometry">
            <mxPoint x="170" y="490" as="sourcePoint" />
            <mxPoint x="144.79999999999995" y="550" as="targetPoint" />
            <Array as="points">
              <mxPoint x="170" y="520" />
              <mxPoint x="105" y="520" />
            </Array>
          </mxGeometry>
        </mxCell>
        <mxCell id="WSLBJZ-DhEwGsPw1suUN-43" style="edgeStyle=orthogonalEdgeStyle;rounded=0;orthogonalLoop=1;jettySize=auto;html=1;entryX=0.5;entryY=0;entryDx=0;entryDy=0;" parent="1c1d494c118603dd-4" edge="1" target="WSLBJZ-DhEwGsPw1suUN-19">
          <mxGeometry relative="1" as="geometry">
            <mxPoint x="180" y="490" as="sourcePoint" />
            <mxPoint x="207.5" y="550" as="targetPoint" />
            <Array as="points">
              <mxPoint x="180" y="520" />
              <mxPoint x="245" y="520" />
            </Array>
          </mxGeometry>
        </mxCell>
        <mxCell id="WSLBJZ-DhEwGsPw1suUN-54" value="&lt;font face=&quot;新宋体&quot;&gt;网络或系统故障&lt;/font&gt;" style="rounded=1;whiteSpace=wrap;html=1;" parent="1c1d494c118603dd-4" vertex="1">
          <mxGeometry x="120" y="710" width="110" height="30" as="geometry" />
        </mxCell>
        <mxCell id="WSLBJZ-DhEwGsPw1suUN-92" value="&lt;font face=&quot;新宋体&quot;&gt;股价波动&lt;/font&gt;" style="rounded=1;whiteSpace=wrap;html=1;" parent="1c1d494c118603dd-4" vertex="1">
          <mxGeometry x="20" y="710" width="90" height="30" as="geometry" />
        </mxCell>
        <mxCell id="WSLBJZ-DhEwGsPw1suUN-145" style="edgeStyle=orthogonalEdgeStyle;rounded=0;orthogonalLoop=1;jettySize=auto;html=1;exitX=0.5;exitY=1;exitDx=0;exitDy=0;entryX=0.5;entryY=0;entryDx=0;entryDy=0;" parent="1c1d494c118603dd-4" source="WSLBJZ-DhEwGsPw1suUN-140" target="WSLBJZ-DhEwGsPw1suUN-54" edge="1">
          <mxGeometry relative="1" as="geometry">
            <Array as="points">
              <mxPoint x="105" y="680" />
              <mxPoint x="175" y="680" />
            </Array>
          </mxGeometry>
        </mxCell>
        <mxCell id="WSLBJZ-DhEwGsPw1suUN-147" style="edgeStyle=orthogonalEdgeStyle;rounded=0;orthogonalLoop=1;jettySize=auto;html=1;exitX=0.5;exitY=1;exitDx=0;exitDy=0;entryX=0.5;entryY=0;entryDx=0;entryDy=0;" parent="1c1d494c118603dd-4" source="WSLBJZ-DhEwGsPw1suUN-140" target="WSLBJZ-DhEwGsPw1suUN-92" edge="1">
          <mxGeometry relative="1" as="geometry">
            <Array as="points">
              <mxPoint x="105" y="680" />
              <mxPoint x="65" y="680" />
            </Array>
          </mxGeometry>
        </mxCell>
        <mxCell id="WSLBJZ-DhEwGsPw1suUN-140" value="" style="rhombus;whiteSpace=wrap;html=1;" parent="1c1d494c118603dd-4" vertex="1">
          <mxGeometry x="65" y="620" width="80" height="30" as="geometry" />
        </mxCell>
        <mxCell id="ZbHFoeEuC-JyLoZ0wAo7-1" value="&lt;font face=&quot;新宋体&quot;&gt;余额不足&lt;/font&gt;" style="rounded=1;whiteSpace=wrap;html=1;" vertex="1" parent="1c1d494c118603dd-4">
          <mxGeometry x="240" y="710" width="90" height="30" as="geometry" />
        </mxCell>
        <mxCell id="WSLBJZ-DhEwGsPw1suUN-16" value="&lt;font face=&quot;新宋体&quot;&gt;查询订单状态&lt;/font&gt;" style="rounded=1;whiteSpace=wrap;html=1;" parent="1c1d494c118603dd-4" vertex="1">
          <mxGeometry x="120" y="410" width="110" height="30" as="geometry" />
        </mxCell>
        <mxCell id="WSLBJZ-DhEwGsPw1suUN-41" style="edgeStyle=orthogonalEdgeStyle;rounded=0;orthogonalLoop=1;jettySize=auto;html=1;exitX=0.5;exitY=1;exitDx=0;exitDy=0;entryX=-0.106;entryY=0.5;entryDx=0;entryDy=0;entryPerimeter=0;" parent="1c1d494c118603dd-4" source="WSLBJZ-DhEwGsPw1suUN-16" target="WSLBJZ-DhEwGsPw1suUN-20" edge="1">
          <mxGeometry relative="1" as="geometry">
            <mxPoint x="200" y="480" as="sourcePoint" />
            <mxPoint x="175" y="480" as="targetPoint" />
          </mxGeometry>
        </mxCell>
        <mxCell id="WSLBJZ-DhEwGsPw1suUN-154" style="edgeStyle=orthogonalEdgeStyle;rounded=0;orthogonalLoop=1;jettySize=auto;html=1;exitX=0.5;exitY=1;exitDx=0;exitDy=0;entryX=1;entryY=0.5;entryDx=0;entryDy=0;" parent="1c1d494c118603dd-4" source="WSLBJZ-DhEwGsPw1suUN-92" target="WSLBJZ-DhEwGsPw1suUN-16" edge="1">
          <mxGeometry relative="1" as="geometry">
            <Array as="points">
              <mxPoint x="65" y="770" />
              <mxPoint x="360" y="770" />
              <mxPoint x="360" y="425" />
            </Array>
          </mxGeometry>
        </mxCell>
        <mxCell id="WSLBJZ-DhEwGsPw1suUN-152" style="edgeStyle=orthogonalEdgeStyle;rounded=0;orthogonalLoop=1;jettySize=auto;html=1;exitX=0.5;exitY=1;exitDx=0;exitDy=0;entryX=1;entryY=0.5;entryDx=0;entryDy=0;" parent="1c1d494c118603dd-4" source="WSLBJZ-DhEwGsPw1suUN-54" edge="1" target="WSLBJZ-DhEwGsPw1suUN-16">
          <mxGeometry relative="1" as="geometry">
            <mxPoint x="170" y="550" as="targetPoint" />
            <Array as="points">
              <mxPoint x="175" y="770" />
              <mxPoint x="360" y="770" />
              <mxPoint x="360" y="425" />
            </Array>
          </mxGeometry>
        </mxCell>
        <mxCell id="WSLBJZ-DhEwGsPw1suUN-19" value="&lt;font face=&quot;新宋体&quot;&gt;查看历史&lt;/font&gt;&lt;span style=&quot;font-family: 新宋体; background-color: initial;&quot;&gt;交易记录&lt;/span&gt;&lt;font face=&quot;新宋体&quot;&gt;&lt;br&gt;&lt;/font&gt;" style="rounded=1;whiteSpace=wrap;html=1;" parent="1c1d494c118603dd-4" vertex="1">
          <mxGeometry x="180" y="550" width="130" height="30" as="geometry" />
        </mxCell>
        <mxCell id="ZbHFoeEuC-JyLoZ0wAo7-2" style="edgeStyle=orthogonalEdgeStyle;rounded=0;orthogonalLoop=1;jettySize=auto;html=1;exitX=0.5;exitY=1;exitDx=0;exitDy=0;entryX=0.5;entryY=0;entryDx=0;entryDy=0;" edge="1" parent="1c1d494c118603dd-4" source="WSLBJZ-DhEwGsPw1suUN-140" target="ZbHFoeEuC-JyLoZ0wAo7-1">
          <mxGeometry relative="1" as="geometry">
            <mxPoint x="210" y="650" as="sourcePoint" />
            <mxPoint x="280" y="710" as="targetPoint" />
            <Array as="points">
              <mxPoint x="105" y="680" />
              <mxPoint x="285" y="680" />
            </Array>
          </mxGeometry>
        </mxCell>
        <mxCell id="ZbHFoeEuC-JyLoZ0wAo7-3" style="edgeStyle=orthogonalEdgeStyle;rounded=0;orthogonalLoop=1;jettySize=auto;html=1;exitX=0.5;exitY=1;exitDx=0;exitDy=0;entryX=1;entryY=0.5;entryDx=0;entryDy=0;" edge="1" parent="1c1d494c118603dd-4" source="ZbHFoeEuC-JyLoZ0wAo7-1" target="WSLBJZ-DhEwGsPw1suUN-16">
          <mxGeometry relative="1" as="geometry">
            <mxPoint x="240" y="450" as="targetPoint" />
            <Array as="points">
              <mxPoint x="285" y="770" />
              <mxPoint x="360" y="770" />
              <mxPoint x="360" y="425" />
            </Array>
            <mxPoint x="185" y="750" as="sourcePoint" />
          </mxGeometry>
        </mxCell>
        <mxCell id="WSLBJZ-DhEwGsPw1suUN-31" style="edgeStyle=orthogonalEdgeStyle;rounded=0;orthogonalLoop=1;jettySize=auto;html=1;exitX=0;exitY=0.5;exitDx=0;exitDy=0;entryX=1;entryY=0.5;entryDx=0;entryDy=0;" parent="1c1d494c118603dd-1" source="WSLBJZ-DhEwGsPw1suUN-3" target="WSLBJZ-DhEwGsPw1suUN-2" edge="1">
          <mxGeometry relative="1" as="geometry" />
        </mxCell>
        <mxCell id="WSLBJZ-DhEwGsPw1suUN-33" style="edgeStyle=orthogonalEdgeStyle;rounded=0;orthogonalLoop=1;jettySize=auto;html=1;exitX=0;exitY=0.5;exitDx=0;exitDy=0;entryX=1;entryY=0.5;entryDx=0;entryDy=0;" parent="1c1d494c118603dd-1" source="WSLBJZ-DhEwGsPw1suUN-10" target="WSLBJZ-DhEwGsPw1suUN-9" edge="1">
          <mxGeometry relative="1" as="geometry" />
        </mxCell>
        <mxCell id="WSLBJZ-DhEwGsPw1suUN-37" style="edgeStyle=orthogonalEdgeStyle;rounded=0;orthogonalLoop=1;jettySize=auto;html=1;exitX=1;exitY=0.5;exitDx=0;exitDy=0;entryX=0;entryY=0.5;entryDx=0;entryDy=0;" parent="1c1d494c118603dd-1" source="WSLBJZ-DhEwGsPw1suUN-14" target="WSLBJZ-DhEwGsPw1suUN-15" edge="1">
          <mxGeometry relative="1" as="geometry" />
        </mxCell>
        <mxCell id="WSLBJZ-DhEwGsPw1suUN-143" style="edgeStyle=orthogonalEdgeStyle;rounded=0;orthogonalLoop=1;jettySize=auto;html=1;exitX=0.5;exitY=1;exitDx=0;exitDy=0;entryX=0.5;entryY=0;entryDx=0;entryDy=0;" parent="1c1d494c118603dd-1" source="WSLBJZ-DhEwGsPw1suUN-140" target="WSLBJZ-DhEwGsPw1suUN-138" edge="1">
          <mxGeometry relative="1" as="geometry">
            <Array as="points">
              <mxPoint x="625" y="710" />
              <mxPoint x="125" y="710" />
            </Array>
          </mxGeometry>
        </mxCell>
        <mxCell id="WSLBJZ-DhEwGsPw1suUN-144" style="edgeStyle=orthogonalEdgeStyle;rounded=0;orthogonalLoop=1;jettySize=auto;html=1;exitX=0.5;exitY=1;exitDx=0;exitDy=0;entryX=0.5;entryY=0;entryDx=0;entryDy=0;" parent="1c1d494c118603dd-1" source="WSLBJZ-DhEwGsPw1suUN-140" target="WSLBJZ-DhEwGsPw1suUN-52" edge="1">
          <mxGeometry relative="1" as="geometry">
            <Array as="points">
              <mxPoint x="625" y="710" />
              <mxPoint x="325" y="710" />
            </Array>
          </mxGeometry>
        </mxCell>
        <mxCell id="WSLBJZ-DhEwGsPw1suUN-146" style="edgeStyle=orthogonalEdgeStyle;rounded=0;orthogonalLoop=1;jettySize=auto;html=1;exitX=0.5;exitY=1;exitDx=0;exitDy=0;entryX=0.5;entryY=0;entryDx=0;entryDy=0;" parent="1c1d494c118603dd-1" source="WSLBJZ-DhEwGsPw1suUN-140" target="WSLBJZ-DhEwGsPw1suUN-91" edge="1">
          <mxGeometry relative="1" as="geometry">
            <Array as="points">
              <mxPoint x="625" y="710" />
              <mxPoint x="445" y="710" />
            </Array>
          </mxGeometry>
        </mxCell>
        <mxCell id="WSLBJZ-DhEwGsPw1suUN-38" style="edgeStyle=orthogonalEdgeStyle;rounded=0;orthogonalLoop=1;jettySize=auto;html=1;exitX=1;exitY=0.5;exitDx=0;exitDy=0;entryX=0;entryY=0.5;entryDx=0;entryDy=0;" parent="1c1d494c118603dd-1" source="WSLBJZ-DhEwGsPw1suUN-15" target="WSLBJZ-DhEwGsPw1suUN-16" edge="1">
          <mxGeometry relative="1" as="geometry" />
        </mxCell>
        <mxCell id="WSLBJZ-DhEwGsPw1suUN-151" style="edgeStyle=orthogonalEdgeStyle;rounded=0;orthogonalLoop=1;jettySize=auto;html=1;exitX=0.5;exitY=1;exitDx=0;exitDy=0;entryX=1;entryY=0.5;entryDx=0;entryDy=0;" parent="1c1d494c118603dd-1" source="WSLBJZ-DhEwGsPw1suUN-52" target="WSLBJZ-DhEwGsPw1suUN-16" edge="1">
          <mxGeometry relative="1" as="geometry">
            <Array as="points">
              <mxPoint x="325" y="800" />
              <mxPoint x="880" y="800" />
              <mxPoint x="880" y="455" />
            </Array>
          </mxGeometry>
        </mxCell>
        <mxCell id="WSLBJZ-DhEwGsPw1suUN-153" style="edgeStyle=orthogonalEdgeStyle;rounded=0;orthogonalLoop=1;jettySize=auto;html=1;exitX=0.5;exitY=1;exitDx=0;exitDy=0;entryX=1;entryY=0.5;entryDx=0;entryDy=0;" parent="1c1d494c118603dd-1" source="WSLBJZ-DhEwGsPw1suUN-91" target="WSLBJZ-DhEwGsPw1suUN-16" edge="1">
          <mxGeometry relative="1" as="geometry">
            <Array as="points">
              <mxPoint x="445" y="800" />
              <mxPoint x="880" y="800" />
              <mxPoint x="880" y="455" />
            </Array>
          </mxGeometry>
        </mxCell>
      </root>
    </mxGraphModel>
  </diagram>
</mxfile>
